HIERARCHY
ROOT wrist
{
	OFFSET 0.00 0.00 0.00
	CHANNELS 6 Xposition Yposition Zposition Xrotation Yrotation Zrotation
	JOINT riHand
	{
		OFFSET -0.04598 0.37556 -0.10882
		CHANNELS 3 Xrotation Yrotation Zrotation
		JOINT RiIndexMP
		{
			OFFSET -1.68547 2.46874 -0.24056
			CHANNELS 2 Zrotation Yrotation
			JOINT RiIndexPIP
			{
				OFFSET -0.10277 1.47086 -0.45732
				CHANNELS 1 Yrotation
				JOINT RiIndexDIP
				{
					OFFSET -0.08662 0.93830 -0.07738
					CHANNELS 1 Yrotation
					End Site
					{
						OFFSET -0.08320 0.90131 -0.07433
					}
				}
			}
		}
		JOINT RiMiddleMP
		{
			OFFSET -0.85407 2.65552 -0.00744
			CHANNELS 2 Zrotation Yrotation
			JOINT RiMiddlePIP
			{
				OFFSET -0.20884 1.70284 -0.28882
				CHANNELS 1 Yrotation
				JOINT RiMiddleDIP
				{
					OFFSET -0.13920 1.15619 -0.27019
					CHANNELS 1 Yrotation
					End Site
					{
						OFFSET -0.12266 1.00992 -0.20553
					}
				}
			}
		}
		JOINT RiRingMP
		{
			OFFSET 0.20418 2.54564 0.23484
			CHANNELS 2 Zrotation Yrotation
			JOINT RiRingPIP
			{
				OFFSET -0.04574 1.65131 -0.34737
				CHANNELS 1 Yrotation
				JOINT RiRingDIP
				{
					OFFSET -0.02985 1.07738 -0.23665
					CHANNELS 1 Yrotation
					End Site
					{
						OFFSET -0.02879 1.03950 -0.21867
					}
				}
			}
		}
		JOINT RiPinkyMP
		{
			OFFSET 0.88895 2.32064 0.25776
			CHANNELS 2 Zrotation Yrotation
			JOINT RiPinkyPIP
			{
				OFFSET 0.43367 1.29723 -0.28031
				CHANNELS 1 Yrotation
				JOINT RiPinkyDIP
				{
					OFFSET 0.23832 0.72354 -0.17269
					CHANNELS 1 Yrotation
					End Site
					{
						OFFSET 0.24280 0.72316 -0.15150
					}
				}
			}
		}
		JOINT RiThumbCMC
		{
			OFFSET -1.27353 -0.34685 -0.51300
			CHANNELS 3 Xrotation Yrotation Zrotation
			JOINT RiThumbMP
			{
				OFFSET -0.97380 1.27673 -0.24634
				CHANNELS 1 Zrotation
				JOINT RiThumbIP
				{
					OFFSET -0.63535 0.77080 -0.10130
					CHANNELS 1 Zrotation
					End Site
					{
						OFFSET -0.66228 0.82323 -0.12448
					}
				}
			}
		}
	}
}
MOTION
Frames: 33
Frame Time: 0.008333
 1.2097 46.7760 -1.0605 -125.4954 -23.7218 179.1585 -23.5217 -3.9717 -17.9332 7.3418 1.8927 -0.4697 -0.5511 -3.5809 1.6761 -1.0351 -0.5665 -5.4797 -0.1248 -0.1143 -0.0431 4.0995 -2.3874 0.3656 1.2776 17.1016 -15.0929 29.3121 -9.1377 15.3556
 1.2063 46.7823 -1.0696 -125.7903 -24.3239 179.1546 -24.1813 -4.5971 -18.4649 7.5841 1.9066 -0.5197 -0.5260 -3.3701 1.7407 -1.0936 -0.4749 -5.3380 -0.1038 -0.1041 -0.0513 4.3511 -2.3086 0.1716 1.3645 17.4214 -15.3199 29.2977 -8.6484 15.1151
 1.2077 46.7655 -1.0747 -125.2505 -24.0581 179.3133 -23.4961 -4.3107 -18.2131 7.3684 1.8779 -0.5110 -0.5578 -3.4878 1.7669 -1.1624 -0.3761 -5.3355 -0.0874 -0.1172 -0.0394 4.2797 -2.4281 0.2684 1.4463 16.5062 -14.6571 29.0584 -9.2327 15.3400
 1.2060 46.7765 -1.0801 -125.6538 -24.1573 179.1912 -24.2838 -4.3405 -18.3724 7.4121 1.8653 -0.4919 -0.5950 -3.5080 1.8567 -1.0929 -0.5255 -5.4745 -0.0468 -0.1126 -0.0596 4.3396 -2.5213 0.1762 1.4939 16.9857 -15.3726 28.9731 -8.4848 15.0162
 1.2064 46.7706 -1.0827 -125.6076 -23.9338 179.1266 -24.2071 -4.2326 -18.2281 7.4762 1.8746 -0.5265 -0.5508 -3.4528 1.8329 -1.0673 -0.5557 -5.4317 -0.0473 -0.1115 -0.0630 4.3141 -2.6005 0.4081 1.3583 16.9325 -15.1453 29.0921 -8.7210 15.0549
 1.2034 46.7633 -1.0839 -125.5565 -24.0488 179.1440 -23.9995 -4.3092 -18.1986 7.2770 1.8646 -0.5052 -0.5573 -3.5239 1.7625 -1.0436 -0.5355 -5.4702 -0.0807 -0.1150 -0.0461 4.2543 -2.5382 0.3775 1.3661 17.1400 -15.4445 29.1277 -8.7007 15.1698
 1.2006 46.7611 -1.0869 -125.5009 -24.0097 179.1546 -24.0057 -4.4886 -18.1671 7.2986 1.8707 -0.4985 -0.5384 -3.5394 1.7695 -1.1187 -0.4157 -5.4473 -0.0879 -0.1192 -0.0415 4.2549 -2.4193 0.3396 1.2772 16.7760 -14.9643 29.0377 -8.9696 15.3149
 1.1988 46.7703 -1.0940 -125.7321 -24.2885 179.1741 -24.6165 -4.6908 -18.5222 7.4123 1.8719 -0.5037 -0.5323 -3.4218 1.8393 -1.1066 -0.4591 -5.3354 -0.0409 -0.1219 -0.0365 4.3503 -2.5142 0.2390 1.3795 16.9303 -15.3678 28.8493 -8.2227 15.1219
 1.1987 46.7666 -1.0955 -125.6314 -24.0588 179.1181 -24.4581 -4.4868 -18.3084 7.3851 1.8761 -0.5091 -0.5256 -3.4531 1.8197 -1.0514 -0.5666 -5.3570 -0.0856 -0.1039 -0.0414 4.3244 -2.5349 0.2543 1.3626 17.0354 -15.3773 28.9539 -8.3891 15.1019
 1.1983 46.7680 -1.0982 -125.6001 -24.0125 179.1168 -24.5276 -4.4241 -18.3029 7.2934 1.8545 -0.5199 -0.5405 -3.4513 1.8174 -1.1129 -0.4090 -5.3871 -0.0792 -0.0987 -0.0554 4.3553 -2.6028 0.2453 1.3966 17.0034 -15.4344 28.8884 -8.2754 15.1023
 1.1970 46.7678 -1.1018 -125.4902 -23.9835 179.1737 -24.4759 -4.5445 -18.3330 7.3294 1.8590 -0.5217 -0.5315 -3.4908 1.8006 -1.0478 -0.5314 -5.4211 -0.0888 -0.0951 -0.0601 4.3982 -2.5455 0.2330 1.3735 16.5529 -14.9147 28.7353 -8.3970 15.1632
 1.1958 46.7773 -1.1067 -125.6621 -24.2580 179.2329 -24.9319 -4.7024 -18.6915 7.4881 1.8676 -0.5589 -0.5184 -3.3640 1.8459 -1.1023 -0.4169 -5.3318 -0.0719 -0.0800 -0.0715 4.5255 -2.6383 0.1927 1.4447 17.0876 -15.5635 28.7055 -7.6892 14.9218
 1.1957 46.7731 -1.1071 -125.5480 -24.0001 179.1740 -24.6866 -4.5299 -18.4409 7.4052 1.8821 -0.4441 -0.6006 -3.3959 1.8189 -1.1013 -0.4158 -5.3666 -0.0768 -0.0857 -0.0667 4.4769 -2.6240 0.2363 1.4104 17.2884 -15.4792 29.0089 -8.1118 14.9780
 1.1945 46.7770 -1.1121 -125.5080 -24.2244 179.3156 -24.7620 -4.6808 -18.7193 7.5064 1.8928 -0.4559 -0.5926 -3.4028 1.8447 -1.0496 -0.5205 -5.2934 -0.0482 -0.0900 -0.0691 4.6058 -2.6728 0.2404 1.3430 17.1769 -15.5795 28.9176 -7.9231 14.9336
 1.1937 46.7818 -1.1142 -125.6803 -24.2658 179.2453 -25.0015 -4.6655 -18.7258 7.4548 1.8672 -0.5346 -0.5086 -3.3684 1.8676 -1.0480 -0.5480 -5.3075 -0.0285 -0.0925 -0.0701 4.5969 -2.7423 0.2489 1.2765 17.4551 -15.9769 28.9416 -7.7084 14.8315
 1.1910 46.7835 -1.1153 -125.7654 -24.2356 179.1802 -25.0819 -4.7047 -18.6265 7.4449 1.8641 -0.5183 -0.5439 -3.3836 1.8873 -1.1130 -0.4111 -5.3645 -0.0306 -0.0901 -0.0713 4.5767 -2.7090 0.2119 1.3366 17.1212 -15.8221 28.7583 -7.6221 14.8204
 1.1901 46.7792 -1.1180 -125.5089 -24.1831 179.3215 -24.5927 -4.6864 -18.6376 7.6208 1.9160 -0.4834 -0.5423 -3.1754 1.8070 -1.0032 -0.6404 -5.2394 -0.0562 -0.0899 -0.0715 4.6676 -2.5897 0.2130 1.2632 17.1043 -15.6325 28.9205 -7.9039 14.9641
 1.1886 46.7845 -1.1211 -125.6809 -24.2090 179.2447 -24.8301 -4.7302 -18.6263 7.5929 1.9001 -0.4966 -0.5219 -3.2946 1.8451 -1.0800 -0.4825 -5.2620 -0.0432 -0.0931 -0.0634 4.6426 -2.5998 0.2232 1.1013 17.1574 -15.7766 28.8406 -7.6975 14.8917
 1.1871 46.7846 -1.1237 -125.6040 -24.1757 179.2764 -24.6799 -4.7361 -18.5622 7.5634 1.8977 -0.4884 -0.5338 -3.3243 1.8341 -1.0784 -0.4811 -5.2822 -0.0544 -0.0930 -0.0608 4.6682 -2.5328 0.0782 1.3585 17.1418 -15.6411 28.8270 -7.7059 14.8306
 1.1870 46.7862 -1.1261 -125.5594 -24.1707 179.3092 -24.6943 -4.7815 -18.5776 7.5887 1.8889 -0.5009 -0.5466 -3.3368 1.8826 -1.1069 -0.4310 -5.2972 -0.0348 -0.0975 -0.0612 4.6811 -2.6875 0.2934 1.3041 17.4465 -15.6188 28.8631 -7.6587 14.8407
 1.1871 46.7869 -1.1276 -125.4563 -24.1555 179.3566 -24.5234 -4.7977 -18.5557 7.5800 1.8901 -0.4955 -0.5455 -3.3265 1.8660 -1.0572 -0.5667 -5.2896 -0.0445 -0.0977 -0.0627 4.6919 -2.6569 0.2689 1.3026 17.5139 -15.1086 29.1936 -8.5328 15.1099
 1.1867 46.7880 -1.1305 -125.3657 -24.1457 179.3974 -24.3377 -4.7435 -18.5049 7.4466 1.8728 -0.5003 -0.5436 -3.3801 1.8404 -1.0502 -0.5800 -5.3639 -0.0669 -0.0903 -0.0704 4.6327 -2.6518 0.3234 1.2490 17.2855 -15.0759 29.0511 -8.6450 15.2728
 1.1840 46.7910 -1.1333 -125.4143 -24.1419 179.3406 -24.4129 -4.7675 -18.4430 7.4220 1.8595 -0.5224 -0.5317 -3.4432 1.8654 -1.0668 -0.5787 -5.3381 -0.0447 -0.0924 -0.0792 4.5717 -2.6823 0.3333 1.2724 17.3787 -15.1091 29.0394 -8.4820 15.1180
 1.1846 46.7903 -1.1368 -125.2358 -24.1298 179.4547 -24.0838 -4.7403 -18.5148 7.4685 1.8792 -0.5092 -0.5336 -3.3370 1.8218 -1.1270 -0.4108 -5.2350 -0.0580 -0.0951 -0.0750 4.6516 -2.6066 0.3753 1.1140 17.5844 -15.1790 29.1907 -8.4166 15.0657
 1.1835 46.7953 -1.1401 -125.3751 -24.1749 179.3804 -24.0900 -4.7001 -18.5071 7.6299 1.9173 -0.5069 -0.5095 -3.2708 1.7430 -1.0622 -0.4792 -5.2624 -0.0903 -0.0891 -0.0639 4.6853 -2.5516 0.1781 1.4659 17.6721 -15.4944 29.2716 -8.3497 15.0958
 1.1818 46.8028 -1.1417 -125.6697 -24.1937 179.2299 -24.5259 -4.7480 -18.4598 7.5215 1.8862 -0.4824 -0.5288 -3.4584 1.8237 -1.1087 -0.4228 -5.3184 -0.0632 -0.0939 -0.0593 4.5848 -2.6361 0.3473 1.2452 17.7020 -15.6391 29.1171 -8.0628 14.9621
 1.1804 46.8033 -1.1420 -125.6336 -24.1660 179.2402 -24.4131 -4.7088 -18.3991 7.4759 1.8699 -0.5190 -0.5438 -3.5356 1.8201 -1.0538 -0.5669 -5.3751 -0.0692 -0.0941 -0.0552 4.5999 -2.6114 0.1942 1.3177 17.4148 -15.5025 29.0238 -8.0913 14.9961
 1.1808 46.8074 -1.1447 -125.6918 -24.1914 179.2645 -24.3933 -4.6353 -18.4829 7.5387 1.8834 -0.5279 -0.5436 -3.4634 1.8019 -1.0415 -0.5931 -5.3238 -0.0717 -0.0941 -0.0578 4.6981 -2.5842 0.0975 1.5235 17.1490 -15.3503 29.0882 -8.4305 15.0812
 1.1777 46.8094 -1.1463 -125.7170 -24.1614 179.2388 -24.3401 -4.6421 -18.3931 7.5525 1.8941 -0.5022 -0.5593 -3.5272 1.8076 -1.0641 -0.5913 -5.3598 -0.0850 -0.0872 -0.0759 4.6281 -2.5689 0.2266 1.3027 17.1754 -15.6115 28.9064 -8.0904 15.0721
 1.1784 46.8082 -1.1477 -125.4958 -24.1352 179.3909 -24.1130 -4.5866 -18.4670 7.6482 1.9007 -0.5277 -0.5128 -3.4777 1.8480 -1.0972 -0.5767 -5.2742 -0.0490 -0.0963 -0.0711 4.7413 -2.6437 0.3289 1.2716 17.2671 -15.3310 29.0663 -8.4288 15.1818
 1.1777 46.8109 -1.1490 -125.5020 -24.1157 179.3942 -24.0944 -4.5991 -18.4363 7.6103 1.8954 -0.5175 -0.5256 -3.4612 1.8489 -1.0979 -0.5683 -5.3001 -0.0516 -0.0971 -0.0710 4.6624 -2.6687 0.4011 1.3173 17.0942 -15.1422 28.9886 -8.4241 15.1062
 1.1778 46.8210 -1.1540 -125.6229 -23.9730 179.2924 -24.3537 -4.5182 -18.3775 7.6598 1.8859 -0.5508 -0.5154 -3.3966 1.8788 -1.0984 -0.5601 -5.2487 -0.0345 -0.0974 -0.0736 4.6667 -2.6937 0.3547 1.4383 17.0521 -15.1678 28.8631 -8.4028 15.2098
 1.1782 46.8280 -1.1564 -125.7605 -23.9851 179.2347 -24.3893 -4.4840 -18.3570 7.5617 1.8908 -0.5173 -0.5066 -3.4368 1.8140 -1.0553 -0.5672 -5.2594 -0.0723 -0.0959 -0.0565 4.6956 -2.6158 0.4092 1.0576 17.0764 -15.6847 28.6926 -7.5544 14.9905
